<svg xmlns="http://www.w3.org/2000/svg" viewBox="0 0 1119 1187"><defs><style>.cls-1{fill:#fff;}</style></defs><title>资源 2</title><g id="图层_2" data-name="图层 2"><g id="图层_1-2" data-name="图层 1"><path d="M1072,1187H43c0-7.82.16-15.65.16-23.47q0-192,0-383.92c0-9.37,3.07-17.13,9.76-23.7q22.65-22.23,45-44.79a10.21,10.21,0,0,0,2.84-6.38q.36-40.49.15-81c0-2-1.56-4.56-3.18-5.92-5.34-4.5-11.19-8.39-16.59-12.83C39.82,571.11,12.94,528.54,3.68,475.49,2.26,467.36,1.22,459.17,0,451V415c.31-1.26.72-2.5.91-3.77C2.13,403,2.8,394.66,4.58,386.56c19.53-88.9,89-155.52,178.68-171.81a11.18,11.18,0,0,0,5.73-3.41c11-12,21.81-24.28,32.9-36.24,2.43-2.62,2.54-4.62,1.21-7.75-14.26-33.59-16.3-67.64-3.09-102,12.67-33,34.83-55.46,70.38-62.82C295.55,1.41,300.8.81,306,0h6c1.09.28,2.18.58,3.28.84,9.5,2.23,19.47,3.29,28.42,6.89,27.17,10.92,46.82,30.51,60.71,56.08,1.3,2.39,2,5.06,6.13,3.92,35.57-9.85,72-12.72,108.73-12.57,30,.13,60-.3,89.91.51,20.92.58,41.87,2.21,62.66,4.57,13.79,1.58,27.34,5.29,41.31,8.11,1.24-2.25,2.56-4.72,4-7.15C734.37,31,759,10.32,793.41,2.46,797.89,1.43,802.47.81,807,0h11c4.53.84,9.1,1.5,13.58,2.56,31.16,7.37,52.2,26.94,65.4,55.36,17.08,36.77,14.72,73.7-.54,110.36-1.57,3.76-1.12,5.84,1.5,8.62,7.65,8.12,15.46,16.17,22.34,24.92s15.33,13,26.38,15.48c88.3,19.46,156.93,94.21,169.47,183.65,1.08,7.67,1.92,15.37,2.87,23.05v18c-.3,1.58-.69,3.16-.87,4.75-.85,7.61-1.2,15.3-2.53,22.81q-16.66,93.91-95.12,148.28a6.85,6.85,0,0,0-3.37,6.49c.21,27.48.2,55,.53,82.44a11.73,11.73,0,0,0,3.16,7.25c14.09,14.41,28.39,28.62,42.68,42.82a27.76,27.76,0,0,1,8.71,20.51q0,196.14,0,392.26C1072.16,1175.41,1072.06,1181.2,1072,1187ZM421.5,121.46c-11,2.45-21.4,4.81-31.81,7a4.57,4.57,0,0,1-3.71-1.27c-4.24-5.12-7.77-10.41-9.32-17.3C371.06,85,358.38,64.47,336.2,51,310,35.18,280,42.88,265.05,69a87,87,0,0,0-11.19,38c-1.54,23.84,6.55,44.77,19.49,64.22,2.83,4.26,5.8,8.43,8.85,12.86L253.77,210l-4.14-3.32L245,211.7C358.8,221.9,460.82,327.94,441.76,465.75c-7.57,54.73-31.81,100.64-74.57,136q-99.93,82.51-223,40.27V756.55H974.06V641.81c-30.93,11.3-62.27,16.33-94.62,13.81-32.53-2.54-62.88-12.44-91.44-28s-52.64-36.14-71.7-62.51-30.7-56.11-37.93-87.8C650.71,356,741.6,223.36,874,212.57l-3.85-4.12L865.31,213a6.57,6.57,0,0,1-1.21-.6c-5.81-5.5-11.57-11-17.4-16.51-8.49-8-8.87-10.15-3-20.46,1.07-1.87,2.42-3.58,3.64-5.37,18.56-27.26,24.34-56.52,13.63-88.26C847.75,42.68,808.14,31,775.76,56.6,758,70.67,748,89.38,743,111.11c-1.6,6.92-3.33,13.81-5,20.87l-40-10.39c.79-4.31,1.47-8,2.18-12-1-.36-1.78-.67-2.56-.87-23.41-6.24-47.22-10.2-71.45-10.5-37.5-.46-75-.19-112.49-.47A367.08,367.08,0,0,0,447,103.14c-9.11,1.61-18.12,3.76-27.32,5.69C420.31,113.44,420.87,117.19,421.5,121.46ZM86.43,1143.63h942.69V799.87H86.43ZM716.17,433.47c0,98.26,80.49,179.31,177.34,180.21,99.85.92,182.44-79.61,182.63-178.24.18-100.62-79.82-181.59-179.2-181.6C797.07,253.82,716.17,334.21,716.17,433.47Zm-494.33,180C319,613.8,400.32,535.24,402,437.89c1.76-101.32-79.15-184.08-179.24-184.06C123,253.85,42,334.17,42,433,42,532.78,122.43,613.49,221.84,613.49Z"/><path class="cls-1" d="M559.49,722.57l0-.57c3.66,0,7.32.06,11,0,14.5-.28,26.66-9.23,28.6-23.59,1.09-8.1,4.86-9.27,11.28-10.63,20.67-4.36,39.75-12.22,54.65-28,9.11-9.64,13.45-20.91,11-34.24-2.74-14.68-12.15-24.82-24.26-32.06-8.76-5.24-18.79-8.33-28.1-12.7a11.14,11.14,0,0,1-5.21-5.07A50.15,50.15,0,0,0,601.37,554c-26.22-18.83-63.29-17.23-87.37,4.29A40.93,40.93,0,0,0,504.15,573c-1.69,4.06-3.58,6-7.7,7-15.38,3.64-28.83,11.21-40.5,21.69-19.57,17.58-19,44.81.87,62,16.35,14.17,35.71,21.65,56.69,25.35,4.84.85,7,2.25,7.69,7.77,1.56,12.57,9.17,20.92,21.5,24C548.09,722.2,553.88,722,559.49,722.57Zm232.7-567.45c7.38,5.14,14.2,9.84,21,14.61,10.77,7.57,20,6.86,28.67-3.16,19-22.1,23.24-47.32,12.28-74-13.28-32.38-50.33-42.43-79-22.3C759.6,81.14,751,96.46,747.52,114.89c-2.64,14,1.21,21.29,14.35,26.8,8.06,3.38,16.17,6.62,24.68,10.1.84-9.73,1.63-18.67,2.4-27.6a25.93,25.93,0,0,1,9.95-18.87c7-5.57,14.52-3.3,17.11,5.3,3.5,11.64.58,21.7-8.13,30.06C803,145.39,797.87,149.91,792.19,155.12Zm-467-.33c-5.3-5.67-10.35-10.75-15-16.15-7.33-8.44-9.66-18.18-5.74-28.79,3-8,9.2-9.66,16.3-4.89,6.61,4.46,9.11,11.2,10.31,18.62,1.37,8.47,2.63,16.94,4,25.78,8.7-3.55,16.64-6.94,24.68-10.05,10.15-3.93,14.79-10.93,13.24-21.75-2.61-18.34-10.6-33.86-25.41-45.42-22.3-17.4-51.74-16.24-70.3,3.17-13.29,13.9-18.43,30.9-16.66,50,2,22,12.59,39.09,29.73,52.56C301.88,170.15,313.25,162.65,325.15,154.79Z"/><path d="M559.49,722.57c-5.61-.53-11.4-.37-16.79-1.74-12.33-3.12-19.94-11.47-21.5-24-.68-5.52-2.85-6.92-7.69-7.77-21-3.7-40.34-11.18-56.69-25.35-19.89-17.23-20.44-44.46-.87-62,11.67-10.48,25.12-18,40.5-21.69,4.12-1,6-2.92,7.7-7A40.93,40.93,0,0,1,514,558.33c24.08-21.52,61.15-23.12,87.37-4.29a50.15,50.15,0,0,1,17.08,21.67,11.14,11.14,0,0,0,5.21,5.07c9.31,4.37,19.34,7.46,28.1,12.7,12.11,7.24,21.52,17.38,24.26,32.06,2.48,13.33-1.86,24.6-11,34.24-14.9,15.77-34,23.63-54.65,28-6.42,1.36-10.19,2.53-11.28,10.63-1.94,14.36-14.1,23.31-28.6,23.59-3.66.07-7.32,0-11,0Zm74.12-91.05c-5.07-2.71-9.59-5.9-14.61-7.71q-60.3-21.75-120.61.32c-4.67,1.72-8.83,4.84-13.57,7.5C515.7,657.39,605.47,657.33,633.61,631.52Z"/><path d="M792.19,155.12c5.68-5.21,10.78-9.73,15.69-14.44,8.71-8.36,11.63-18.42,8.13-30.06-2.59-8.6-10.08-10.87-17.11-5.3A25.93,25.93,0,0,0,789,124.19c-.77,8.93-1.56,17.87-2.4,27.6-8.51-3.48-16.62-6.72-24.68-10.1-13.14-5.51-17-12.8-14.35-26.8C751,96.46,759.6,81.14,775.13,70.23c28.66-20.13,65.71-10.08,79,22.3,11,26.72,6.76,51.94-12.28,74-8.64,10-17.9,10.73-28.67,3.16C806.39,165,799.57,160.26,792.19,155.12Z"/><path d="M325.15,154.79c-11.9,7.86-23.27,15.36-34.88,23-17.14-13.47-27.71-30.61-29.73-52.56-1.77-19.06,3.37-36.06,16.66-50,18.56-19.41,48-20.57,70.3-3.17,14.81,11.56,22.8,27.08,25.41,45.42,1.55,10.82-3.09,17.82-13.24,21.75-8,3.11-16,6.5-24.68,10.05-1.37-8.84-2.63-17.31-4-25.78-1.2-7.42-3.7-14.16-10.31-18.62-7.1-4.77-13.34-3.14-16.3,4.89-3.92,10.61-1.59,20.35,5.74,28.79C314.8,144,319.85,149.12,325.15,154.79Z"/><path d="M657.66,900.17v28.66l52.5,1.34c10.48.27,21,.45,31.45.88,11.72.48,19.39,8.6,19.35,20.4a49,49,0,0,1-.92,11.38c-2.1,8.45-9.07,13.84-17.74,14.28-3.15.16-6.35-.19-9.49.1-24.32,2.21-48.51-.74-73.37-2-.1,1.94-.26,3.68-.26,5.41,0,15,0,30,0,45,0,13.06-7,20.46-20.07,21.2-2.33.13-4.67.18-7,.15-11.73-.16-19.72-7.39-20.13-19.06-.6-17.31-.67-34.63-1-52a28.09,28.09,0,0,0-.37-5.3c-3.21,15-9.16,28.46-19.36,39.94-9.26,10.41-20.19,19.22-33.41,22.81-8.59,2.33-16,6.63-24.1,9.36-35.38,11.88-66.11,2.47-93-22.18-8.46-7.75-14.43-17.25-19.91-27.61q-.67,14-1.35,28c-.13,2.66-.22,5.33-.5,8-.85,8-6.33,14.74-14.23,16-10.81,1.74-21.49,1.79-27.88-8.09-10.79,3.19-20.89,7.33-31.39,9.08-42.45,7.09-79.89-14.5-94.71-55s-9.71-78.32,18.31-111.47c19.6-23.2,46.12-31.79,76.08-30.12,20.42,1.15,39.25,7,55.33,20.17,5.9,4.83,9.46,10.95,8.55,18.7-1.05,9.07-6,16.25-13.3,21.36-4.51,3.13-9.9,2.66-14.81.23-4.62-2.28-9-5-13.63-7.31A61.16,61.16,0,0,0,335.94,896c-18.17,1.1-31.18,9.84-38.28,26.64-8.23,19.48-8,39,1.55,58,7.93,15.82,24.54,23.69,41.52,18.59,11.21-3.37,21.75-9,32.44-14,1.27-.59,1.55-3.32,2.53-5.61-14-1.2-26.95-2.31-39.86-3.4s-19.59-8.8-18.84-21.53c.49-8.31,1.17-16.6,1.83-25.78l95.19,7c.83-4,1.71-9.34,3.06-14.58a95.79,95.79,0,0,1,98.49-72.11,89.65,89.65,0,0,1,38.51,11.21c3.34,1.84,5.91,5.7,7.89,9.17,1.45,2.54,3,3.48,5.6,4.58a49.62,49.62,0,0,1,13.88,8.37c13.8,12.32,22.53,27.8,26.72,45.84.33,1.45.75,2.87,1.16,4.3,0,.1.29.14,1.07.46,0-7.46,0-14.69,0-21.91a12.62,12.62,0,0,1-.16-1.48c1-7.82.08-14.3-5.43-21.34-5.73-7.32-4.44-17.59-.22-26.24,3.38-6.91,9.85-10,17.3-9.9,26.31.22,52.62.75,78.93,1.15,13.83.21,27.66.16,41.47.72,6.35.25,12.65,1.67,20.16,2.73,6.19-7.81,16.44-6,26.14-5.61,22.3.78,44.59,1.87,66.88,2.78,13.8.57,20.69,7.63,20.71,21.37,0,1.5,0,3,0,4.5-.31,12.53-7.58,19.79-20,19.94-5.82.08-11.63,0-17.94,0-.45,11.38-.88,22.47-1.31,33.56-.8,20.63-1.48,41.26-2.52,61.88-.19,3.77,1,4.56,4.33,4.63a80.4,80.4,0,0,1,14.4,1.13c7.51,1.54,12.52,6.48,13.91,14a43.59,43.59,0,0,1,.23,14.81c-1.48,8.92-7.7,14.77-16.73,15.16-12.46.53-25,.11-37.44-.08-12.82-.2-25.63-.67-38.45-.9-12.52-.23-20.27-7.68-20.53-20.22a46.67,46.67,0,0,1,.74-10.9c1.75-8,7.53-13.16,15.63-13.94,4.93-.47,10-.09,15.57-.09,1.47-34,2.91-67.37,4.33-100.41L763,894.27c-4,4.53-11,5.69-18.65,5.62-12.49-.1-25,.22-37.49.26C690.5,900.21,674.11,900.17,657.66,900.17ZM463,949.12c0,1.66-.06,3.33,0,5,1,24,14.81,41.57,37.38,45.12,9.79,1.55,20.11-.3,30.18-.69.54,0,1.06-.71,1.57-1.12,3.35-2.69,6.59-5.56,10.08-8.07,23.53-17,27.71-48.74,9.41-71.33-3.34-4.13-6.26-8.59-9.5-12.8a6.51,6.51,0,0,0-3-2.13c-3.78-1.22-7.69-2.06-11.46-3.31-8.53-2.84-17.21-3.95-26-2.18C477.74,902.39,462.31,923,463,949.12Z"/><path d="M896,370.17a56.59,56.59,0,1,1,56.5-56.36A56.35,56.35,0,0,1,896,370.17Z"/><path id="logo" d="M278.17,313.17c0,31.86-24.8,56.9-56.47,57-31.87.1-56.89-25-56.87-57.13a56.67,56.67,0,0,1,113.34.13Z"/></g></g></svg>