<?xml version="1.0" encoding="UTF-8"?>
<svg width="1119px" height="1187px" viewBox="0 0 1119 1187" version="1.1" xmlns="http://www.w3.org/2000/svg" xmlns:xlink="http://www.w3.org/1999/xlink">
    <title>logo</title>
    <defs>
        <filter color-interpolation-filters="auto" id="filter-1">
            <feColorMatrix in="SourceGraphic" type="matrix" values="0 0 0 0 0.388235 0 0 0 0 0.400000 0 0 0 0 0.945098 0 0 0 1.000000 0"></feColorMatrix>
        </filter>
    </defs>
    <g id="页面-1" stroke="none" stroke-width="1" fill="none" fill-rule="evenodd">
        <g filter="url(#filter-1)" id="logo">
            <g>
                <path d="M1072,1187 L43,1187 C43,1179.18 43.16,1171.35 43.16,1163.53 C43.16,1035.53 43.16,907.556667 43.16,779.61 C43.16,770.24 46.23,762.48 52.92,755.91 C68.02,741.09 83.02,726.16 97.92,711.12 C99.5871585,709.393264 100.592682,707.134376 100.76,704.74 C101,677.746667 101.05,650.746667 100.91,623.74 C100.91,621.74 99.35,619.18 97.73,617.82 C92.39,613.32 86.54,609.43 81.14,604.99 C39.82,571.11 12.94,528.54 3.68,475.49 C2.26,467.36 1.22,459.17 0,451 L0,415 C0.31,413.74 0.72,412.5 0.91,411.23 C2.13,403 2.8,394.66 4.58,386.56 C24.11,297.66 93.58,231.04 183.26,214.75 C185.47239,214.222628 187.471315,213.033041 188.99,211.34 C199.99,199.34 210.8,187.06 221.89,175.1 C224.32,172.48 224.43,170.48 223.1,167.35 C208.84,133.76 206.8,99.71 220.01,65.35 C232.68,32.35 254.84,9.89 290.39,2.53 C295.55,1.41 300.8,0.81 306,0 L312,0 C313.09,0.28 314.18,0.58 315.28,0.84 C324.78,3.07 334.75,4.13 343.7,7.73 C370.87,18.65 390.52,38.24 404.41,63.81 C405.71,66.2 406.41,68.87 410.54,67.73 C446.11,57.88 482.54,55.01 519.27,55.16 C549.27,55.29 579.27,54.86 609.18,55.67 C630.1,56.25 651.05,57.88 671.84,60.24 C685.63,61.82 699.18,65.53 713.15,68.35 C714.39,66.1 715.71,63.63 717.15,61.2 C734.37,31 759,10.32 793.41,2.46 C797.89,1.43 802.47,0.81 807,0 L818,0 C822.53,0.84 827.1,1.5 831.58,2.56 C862.74,9.93 883.78,29.5 896.98,57.92 C914.06,94.69 911.7,131.62 896.44,168.28 C894.87,172.04 895.32,174.12 897.94,176.9 C905.59,185.02 913.4,193.07 920.28,201.82 C927.16,210.57 935.61,214.82 946.66,217.3 C1034.96,236.76 1103.59,311.51 1116.13,400.95 C1117.21,408.62 1118.05,416.32 1119,424 L1119,442 C1118.7,443.58 1118.31,445.16 1118.13,446.75 C1117.28,454.36 1116.93,462.05 1115.6,469.56 C1104.49333,532.166667 1072.78667,581.593333 1020.48,617.84 C1018.19929,619.172613 1016.88804,621.69785 1017.11,624.33 C1017.32,651.81 1017.31,679.33 1017.64,706.77 C1017.82231,709.479604 1018.93917,712.042 1020.8,714.02 C1034.89,728.43 1049.19,742.64 1063.48,756.84 C1069.12022,762.160282 1072.27836,769.596959 1072.19,777.35 C1072.19,908.11 1072.19,1038.86333 1072.19,1169.61 C1072.16,1175.41 1072.06,1181.2 1072,1187 Z M421.5,121.46 C410.5,123.91 400.1,126.27 389.69,128.46 C388.325319,128.615706 386.962976,128.149352 385.98,127.19 C381.74,122.07 378.21,116.78 376.66,109.89 C371.06,85 358.38,64.47 336.2,51 C310,35.18 280,42.88 265.05,69 C258.44753,80.6376603 254.618277,93.6413788 253.86,107 C252.32,130.84 260.41,151.77 273.35,171.22 C276.18,175.48 279.15,179.65 282.2,184.08 L253.77,210 L249.63,206.68 L245,211.7 C358.8,221.9 460.82,327.94 441.76,465.75 C434.19,520.48 409.95,566.39 367.19,601.75 C300.57,656.756667 226.236667,670.18 144.19,642.02 L144.19,756.55 L974.06,756.55 L974.06,641.81 C943.13,653.11 911.79,658.14 879.44,655.62 C846.91,653.08 816.56,643.18 788,627.62 C759.44,612.06 735.36,591.48 716.3,565.11 C697.24,538.74 685.6,509 678.37,477.31 C650.71,356 741.6,223.36 874,212.57 L870.15,208.45 L865.31,213 C864.887126,212.842098 864.481651,212.641036 864.1,212.4 C858.29,206.9 852.53,201.4 846.7,195.89 C838.21,187.89 837.83,185.74 843.7,175.43 C844.77,173.56 846.12,171.85 847.34,170.06 C865.9,142.8 871.68,113.54 860.97,81.8 C847.75,42.68 808.14,31 775.76,56.6 C758,70.67 748,89.38 743,111.11 C741.4,118.03 739.67,124.92 738,131.98 L698,121.59 C698.79,117.28 699.47,113.59 700.18,109.59 C699.18,109.23 698.4,108.92 697.62,108.72 C674.21,102.48 650.4,98.52 626.17,98.22 C588.67,97.76 551.17,98.03 513.68,97.75 C491.335608,97.5133809 469.016281,99.3175376 447,103.14 C437.89,104.75 428.88,106.9 419.68,108.83 C420.31,113.44 420.87,117.19 421.5,121.46 Z M86.43,1143.63 L1029.12,1143.63 L1029.12,799.87 L86.43,799.87 L86.43,1143.63 Z M716.17,433.47 C716.17,531.73 796.66,612.78 893.51,613.68 C993.36,614.6 1075.95,534.07 1076.1403,435.44 C1076.32,334.82 996.32,253.85 896.94,253.839996 C797.07,253.82 716.17,334.21 716.17,433.47 Z M221.84,613.47 C319,613.8 400.32,535.24 402,437.89 C403.76,336.57 322.85,253.81 222.76,253.829996 C123,253.85 42,334.17 42,433 C42,532.78 122.43,613.49 221.84,613.49 L221.84,613.47 Z" id="形状" fill="#000000" fill-rule="nonzero"></path>
                <path d="M559.49,722.57 L559.49,722 C563.15,722 566.81,722.06 570.49,722 C584.99,721.72 597.15,712.77 599.09,698.41 C600.18,690.31 603.95,689.14 610.37,687.78 C631.04,683.42 650.12,675.56 665.02,659.78 C674.13,650.14 678.47,638.87 676.02,625.54 C673.28,610.86 663.87,600.72 651.76,593.48 C643,588.24 632.97,585.15 623.66,580.78 C621.405251,579.720147 619.570862,577.935051 618.45,575.71 C614.901254,567.017119 608.983405,559.495075 601.37,554 C575.15,535.17 538.08,536.77 514,558.29 C509.682874,562.416054 506.320911,567.436814 504.15,573 C502.46,577.06 500.57,579 496.45,580 C481.07,583.64 467.62,591.21 455.95,601.69 C436.38,619.27 436.95,646.5 456.82,663.69 C473.17,677.86 492.53,685.34 513.51,689.04 C518.35,689.89 520.51,691.29 521.2,696.81 C522.76,709.38 530.37,717.73 542.7,720.81 C548.09,722.2 553.88,722 559.49,722.57 Z M792.19,155.12 C799.57,160.26 806.39,164.96 813.19,169.73 C823.96,177.3 833.19,176.59 841.86,166.57 C860.86,144.47 865.1,119.25 854.14,92.57 C840.86,60.19 803.81,50.14 775.14,70.27 C759.6,81.14 751,96.46 747.52,114.89 C744.88,128.89 748.73,136.18 761.87,141.69 C769.93,145.07 778.04,148.31 786.55,151.79 C787.39,142.06 788.18,133.12 788.95,124.19 C789.405855,116.763804 793.029718,109.891212 798.9,105.32 C805.9,99.75 813.42,102.02 816.01,110.62 C819.51,122.26 816.59,132.32 807.88,140.68 C803,145.39 797.87,149.91 792.19,155.12 Z M325.19,154.79 C319.89,149.12 314.84,144.04 310.19,138.64 C302.86,130.2 300.53,120.46 304.45,109.85 C307.45,101.85 313.65,100.19 320.75,104.96 C327.36,109.42 329.86,116.16 331.06,123.58 C332.43,132.05 333.69,140.52 335.06,149.36 C343.76,145.81 351.7,142.42 359.74,139.31 C369.89,135.38 374.53,128.38 372.98,117.56 C370.37,99.22 362.38,83.7 347.57,72.14 C325.27,54.74 295.83,55.9 277.27,75.31 C263.98,89.21 258.84,106.21 260.61,125.31 C262.61,147.31 273.2,164.4 290.34,177.87 C301.88,170.15 313.25,162.65 325.15,154.79 L325.19,154.79 Z" id="形状" fill="#FFFFFF" fill-rule="nonzero"></path>
                <path d="M559.49,722.57 C553.88,722.04 548.09,722.2 542.7,720.83 C530.37,717.71 522.76,709.36 521.2,696.83 C520.52,691.31 518.35,689.91 513.51,689.06 C492.51,685.36 473.17,677.88 456.82,663.71 C436.93,646.48 436.38,619.25 455.95,601.71 C467.62,591.23 481.07,583.71 496.45,580.02 C500.57,579.02 502.45,577.1 504.15,573.02 C506.323476,567.463979 509.685288,562.450271 514,558.33 C538.08,536.81 575.15,535.21 601.37,554.04 C608.977525,559.524233 614.894844,567.031744 618.45,575.71 C619.570862,577.935051 621.405251,579.720147 623.66,580.78 C632.97,585.15 643,588.24 651.76,593.48 C663.87,600.72 673.28,610.86 676.02,625.54 C678.5,638.87 674.16,650.14 665.02,659.78 C650.12,675.55 631.02,683.41 610.37,687.78 C603.95,689.14 600.18,690.31 599.09,698.41 C597.15,712.77 584.99,721.72 570.49,722 C566.83,722.07 563.17,722 559.49,722 L559.49,722.57 Z M633.61,631.52 C628.54,628.81 624.02,625.62 619,623.81 C578.8,609.31 538.596667,609.416667 498.39,624.13 C493.72,625.85 489.56,628.97 484.82,631.63 C515.7,657.39 605.47,657.33 633.61,631.52 L633.61,631.52 Z" id="形状" fill="#000000" fill-rule="nonzero"></path>
                <path d="M792.19,155.12 C797.87,149.91 802.97,145.39 807.88,140.68 C816.59,132.32 819.51,122.26 816.01,110.62 C813.42,102.02 805.93,99.75 798.9,105.32 C793.048487,109.900782 789.443566,116.77198 789,124.19 C788.23,133.12 787.44,142.06 786.6,151.79 C778.09,148.31 769.98,145.07 761.92,141.69 C748.78,136.18 744.92,128.89 747.57,114.89 C751,96.46 759.6,81.14 775.13,70.23 C803.79,50.1 840.84,60.15 854.13,92.53 C865.13,119.25 860.89,144.47 841.85,166.53 C833.21,176.53 823.95,177.26 813.18,169.69 C806.39,165 799.57,160.26 792.19,155.12 Z" id="路径" fill="#000000" fill-rule="nonzero"></path>
                <path d="M325.15,154.79 C313.25,162.65 301.88,170.15 290.27,177.79 C273.13,164.32 262.56,147.18 260.54,125.23 C258.77,106.17 263.91,89.17 277.2,75.23 C295.76,55.82 325.2,54.66 347.5,72.06 C362.31,83.62 370.3,99.14 372.91,117.48 C374.46,128.3 369.82,135.3 359.67,139.23 C351.67,142.34 343.67,145.73 334.99,149.28 C333.62,140.44 332.36,131.97 330.99,123.5 C329.79,116.08 327.29,109.34 320.68,104.88 C313.58,100.11 307.34,101.74 304.38,109.77 C300.46,120.38 302.79,130.12 310.12,138.56 C314.8,144 319.85,149.12 325.15,154.79 Z" id="路径" fill="#000000" fill-rule="nonzero"></path>
                <path d="M657.66,900.17 L657.66,928.83 L710.16,930.17 C720.64,930.44 731.16,930.62 741.61,931.05 C753.33,931.53 761,939.65 760.96,951.45 C761.097819,955.266223 760.789057,959.085475 760.04,962.83 C757.94,971.28 750.97,976.67 742.3,977.11 C739.15,977.27 735.95,976.92 732.81,977.21 C708.49,979.42 684.3,976.47 659.44,975.21 C659.34,977.15 659.18,978.89 659.18,980.62 C659.18,995.62 659.18,1010.62 659.18,1025.62 C659.18,1038.68 652.18,1046.08 639.11,1046.82 C636.78,1046.95 634.44,1047 632.11,1046.97 C620.38,1046.81 612.39,1039.58 611.98,1027.91 C611.38,1010.6 611.31,993.28 610.98,975.91 C611.024391,974.135611 610.900504,972.361009 610.61,970.61 C607.4,985.61 601.45,999.07 591.25,1010.55 C581.99,1020.96 571.06,1029.77 557.84,1033.36 C549.25,1035.69 541.84,1039.99 533.74,1042.72 C498.36,1054.6 467.63,1045.19 440.74,1020.54 C432.28,1012.79 426.31,1003.29 420.83,992.93 C420.383333,1002.26333 419.933333,1011.59667 419.48,1020.93 C419.35,1023.59 419.26,1026.26 418.98,1028.93 C418.13,1036.93 412.65,1043.67 404.75,1044.93 C393.94,1046.67 383.26,1046.72 376.87,1036.84 C366.08,1040.03 355.98,1044.17 345.48,1045.92 C303.03,1053.01 265.59,1031.42 250.77,990.92 C235.95,950.42 241.06,912.6 269.08,879.45 C288.68,856.25 315.2,847.66 345.16,849.33 C365.58,850.48 384.41,856.33 400.49,869.5 C406.39,874.33 409.95,880.45 409.04,888.2 C407.99,897.27 403.04,904.45 395.74,909.56 C391.23,912.69 385.84,912.22 380.93,909.79 C376.31,907.51 371.93,904.79 367.3,902.48 C357.607694,897.57316 346.783322,895.336491 335.94,896 C317.77,897.1 304.76,905.84 297.66,922.64 C289.43,942.12 289.66,961.64 299.21,980.64 C307.14,996.46 323.75,1004.33 340.73,999.23 C351.94,995.86 362.48,990.23 373.17,985.23 C374.44,984.64 374.72,981.91 375.7,979.62 C361.7,978.42 348.75,977.31 335.84,976.22 C322.93,975.13 316.25,967.42 317,954.69 C317.49,946.38 318.17,938.09 318.83,928.91 L414.02,935.91 C414.85,931.91 415.73,926.57 417.08,921.33 C428.361395,876.779358 469.69265,846.51845 515.57,849.22 C529.088533,850.000374 542.254663,853.832946 554.08,860.43 C557.42,862.27 559.99,866.13 561.97,869.6 C563.42,872.14 564.97,873.08 567.57,874.18 C572.624151,876.190384 577.313363,879.0181 581.45,882.55 C595.25,894.87 603.98,910.35 608.17,928.39 C608.5,929.84 608.92,931.26 609.33,932.69 C609.33,932.79 609.62,932.83 610.4,933.15 C610.4,925.69 610.4,918.46 610.4,911.24 C610.317592,910.750245 610.264165,910.256052 610.24,909.76 C611.24,901.94 610.32,895.46 604.81,888.42 C599.08,881.1 600.37,870.83 604.59,862.18 C607.97,855.27 614.44,852.18 621.89,852.28 C648.2,852.5 674.51,853.03 700.82,853.43 C714.65,853.64 728.48,853.59 742.29,854.15 C748.64,854.4 754.94,855.82 762.45,856.88 C768.64,849.07 778.89,850.88 788.59,851.27 C810.89,852.05 833.18,853.14 855.47,854.05 C869.27,854.62 876.16,861.68 876.18,875.42 C876.18,876.92 876.18,878.42 876.18,879.92 C875.87,892.45 868.6,899.71 856.18,899.86 C850.36,899.94 844.55,899.86 838.24,899.86 C837.79,911.24 837.36,922.33 836.93,933.42 C836.13,954.05 835.45,974.68 834.41,995.3 C834.22,999.07 835.41,999.86 838.74,999.93 C843.564182,999.873858 848.383626,1000.25205 853.14,1001.06 C860.65,1002.6 865.66,1007.54 867.05,1015.06 C867.970981,1019.9474 868.048771,1024.95636 867.28,1029.87 C865.8,1038.79 859.58,1044.64 850.55,1045.03 C838.09,1045.56 825.55,1045.14 813.11,1044.95 C800.29,1044.75 787.48,1044.28 774.66,1044.05 C762.14,1043.82 754.39,1036.37 754.13,1023.83 C753.949082,1020.18023 754.19745,1016.52183 754.87,1012.93 C756.62,1004.93 762.4,999.77 770.5,998.99 C775.43,998.52 780.5,998.9 786.07,998.9 C787.54,964.9 788.98,931.53 790.4,898.49 L763,894.27 C759,898.8 752,899.96 744.35,899.89 C731.86,899.79 719.35,900.11 706.86,900.15 C690.5,900.21 674.11,900.17 657.66,900.17 Z M463,949.12 C463,950.78 462.94,952.45 463,954.12 C464,978.12 477.81,995.69 500.38,999.24 C510.17,1000.79 520.49,998.94 530.56,998.55 C531.1,998.55 531.62,997.84 532.13,997.43 C535.48,994.74 538.72,991.87 542.21,989.36 C565.74,972.36 569.92,940.62 551.62,918.03 C548.28,913.9 545.36,909.44 542.12,905.23 C541.345612,904.246307 540.304006,903.506767 539.12,903.1 C535.34,901.88 531.43,901.04 527.66,899.79 C519.13,896.95 510.45,895.84 501.66,897.61 C477.74,902.39 462.31,923 463,949.12 Z" id="形状" fill="#000000" fill-rule="nonzero"></path>
                <path d="M896,370.1702 C873.082436,370.206259 852.405625,356.416654 843.631825,335.245057 C834.858025,314.073461 839.719688,289.700362 855.944963,273.515291 C872.170238,257.33022 896.555323,252.52904 917.705087,261.355339 C938.854852,270.181638 952.593116,290.892596 952.50047,313.81 C952.50271,328.782707 946.546438,343.140902 935.94601,353.715063 C925.345582,364.289225 910.972655,370.209857 896,370.1702 Z" id="路径" fill="#000000" fill-rule="nonzero"></path>
                <path d="M278.170038,313.17 C278.170038,345.03 253.37,370.07 221.7,370.170298 C189.83,370.27 164.81,345.17 164.829988,313.04 C164.865899,281.742023 190.267023,256.399101 221.565,256.434962 C252.862977,256.470899 278.205899,281.872023 278.170038,313.17 Z" id="路径" fill="#000000" fill-rule="nonzero"></path>
            </g>
        </g>
    </g>
</svg>