<svg id="a5a3b5e3-d7d8-4dd0-99da-2c47698acbff" data-name="Layer 1" xmlns="http://www.w3.org/2000/svg" width="1014.8094" height="519.94336" viewBox="0 0 1014.8094 519.94336"><path d="M141.87514,697.02227c18.35067,13.21982,42.13177,13.88362,65.11877,12.25956,3.20983-.22647,6.397-.49223,9.55455-.77894.01907-.005.04412-.00318.0635-.00811.15175-.01444.30381-.0289.449-.03751.65173-.061,1.30376-.12189,1.94938-.18326l-.15251.291-.47869.903c.172-.30223.34392-.59817.516-.9004.0506-.09072.10731-.181.15761-.27182,5.9549-10.3626,11.86111-21.10587,13.36766-32.93881,1.55723-12.28205-2.81921-26.18939-13.62881-32.22607a21.81371,21.81371,0,0,0-4.476-1.87463c-.64648-.19644-1.30171-.35578-1.96438-.49681a23.38026,23.38026,0,0,0-27.18952,30.393c-9.1646-9.39746-7.455-24.64254-4.29368-37.38365,3.16746-12.74071,7.00195-26.91811.55962-38.3619-3.58118-6.36972-9.87889-10.32171-16.94646-11.91375-.21682-.04675-.43333-.09344-.65058-.13388a34.12132,34.12132,0,0,0-24.51434,4.29533c-13.5138,8.51589-20.45468,24.66225-22.70738,40.47892C112.97926,653.58551,121.01148,681.99069,141.87514,697.02227Z" transform="translate(-92.5953 -190.02832)" fill="#f2f2f2"/><path d="M147.79989,656.22189a58.00367,58.00367,0,0,0,4.00323,16.34555,50.36554,50.36554,0,0,0,7.82,12.77317,64.53124,64.53124,0,0,0,24.78774,17.87326,92.875,92.875,0,0,0,22.583,6.068c3.20983-.22647,6.397-.49223,9.55455-.77894.01907-.005.04412-.00318.0635-.00811.15175-.01444.30381-.0289.449-.03751.65173-.061,1.30376-.12189,1.94938-.18326l-.15251.291-.47869.903c.172-.30223.34392-.59817.516-.9004.0506-.09072.10731-.181.15761-.27182a51.3396,51.3396,0,0,1-14.38829-44.91026,51.77935,51.77935,0,0,1,9.6511-22.12925c-.64648-.19644-1.30171-.35578-1.96438-.49681a53.68444,53.68444,0,0,0-4.89705,8.111,52.6033,52.6033,0,0,0-4.53843,32.72492,53.78111,53.78111,0,0,0,13.626,26.82527c-.61308-.04321-1.23213-.09313-1.8379-.14841-11.47444-.97215-22.9255-3.43893-33.33292-8.49165a60.03366,60.03366,0,0,1-22.48961-18.45314c-6.30312-8.69283-9.08057-19.14906-9.55769-29.77639a125.66232,125.66232,0,0,1,3.56687-34.01933,142.78942,142.78942,0,0,1,11.9983-32.68329,1.02661,1.02661,0,0,0-.40763-1.35528.87318.87318,0,0,0-.65058-.13388.76015.76015,0,0,0-.50183.42987c-.656,1.28032-1.29979,2.56151-1.91911,3.857A144.40982,144.40982,0,0,0,150.10471,621.554C147.82374,632.86714,146.60627,644.70161,147.79989,656.22189Z" transform="translate(-92.5953 -190.02832)" fill="#fff"/><path d="M1068.0106,688.87482c-27.68784,19.94632-63.56922,20.94787-98.25246,18.49746-4.84306-.3417-9.65185-.74268-14.41609-1.17528-.02878-.00746-.06658-.0048-.09582-.01224-.229-.02178-.45838-.04359-.67746-.05658-.98334-.092-1.96714-.18392-2.94126-.27651l.23012.43909.72225,1.36251c-.25956-.456-.51892-.90254-.77848-1.35854-.07635-.13688-.16191-.27316-.2378-.41013-8.98487-15.63529-17.89628-31.84495-20.16938-49.69872-2.34959-18.5314,4.25368-39.51506,20.56341-48.62331a32.91172,32.91172,0,0,1,6.75353-2.82848c.97542-.2964,1.96405-.53682,2.9639-.7496a35.27659,35.27659,0,0,1,41.02408,45.8575c13.82773-14.17907,11.24829-37.18114,6.47839-56.40517-4.77913-19.22344-10.56468-40.61458-.84438-57.8812,5.40336-9.61075,14.90548-15.57359,25.56916-17.97569.32713-.07053.65381-.141.98161-.202a51.483,51.483,0,0,1,36.9877,6.48087c20.3899,12.849,30.86243,37.21089,34.26134,61.07539C1111.60928,623.33658,1099.49011,666.19488,1068.0106,688.87482Z" transform="translate(-92.5953 -190.02832)" fill="#f2f2f2"/><path d="M1059.07122,627.31441a87.51723,87.51723,0,0,1-6.04014,24.66249,75.99285,75.99285,0,0,1-11.799,19.2724c-9.95134,11.97075-23.10978,20.97073-37.40022,26.96753a140.13226,140.13226,0,0,1-34.07373,9.15545c-4.84306-.3417-9.65185-.74268-14.41609-1.17528-.02878-.00746-.06658-.0048-.09582-.01224-.229-.02178-.45838-.04359-.67746-.05658-.98334-.092-1.96714-.18392-2.94126-.27651l.23012.43909.72225,1.36251c-.25956-.456-.51892-.90254-.77848-1.35854-.07635-.13688-.16191-.27316-.2378-.41013a77.46219,77.46219,0,0,0,21.70934-67.76148,78.12574,78.12574,0,0,0-14.56178-33.389c.97542-.2964,1.96405-.53682,2.9639-.7496a81.00184,81.00184,0,0,1,7.38877,12.238,79.36887,79.36887,0,0,1,6.84766,49.376,81.14591,81.14591,0,0,1-20.5592,40.47449c.925-.0652,1.859-.14052,2.77306-.22392,17.31285-1.4668,34.59044-5.18873,50.29335-12.81237a90.57982,90.57982,0,0,0,33.93276-27.84245c9.51028-13.11592,13.70094-28.89247,14.42083-44.92721.76333-17.16658-1.46407-34.63466-5.38176-51.329a215.44337,215.44337,0,0,0-18.10326-49.31317,1.549,1.549,0,0,1,.615-2.04488,1.31747,1.31747,0,0,1,.98161-.202,1.147,1.147,0,0,1,.75717.64859c.98979,1.93178,1.96115,3.86487,2.89559,5.81954a217.8887,217.8887,0,0,1,17.057,51.16079C1059.03524,592.07631,1060.87219,609.93239,1059.07122,627.31441Z" transform="translate(-92.5953 -190.02832)" fill="#fff"/><path d="M807.8192,493.75781H393.79357a3.28124,3.28124,0,0,1-3.27344-3.27246V193.30176a3.28052,3.28052,0,0,1,3.27271-3.27344H807.818a3.28093,3.28093,0,0,1,3.27344,3.27246v297.1836A3.28119,3.28119,0,0,1,807.8192,493.75781ZM393.7943,192.02832a1.27733,1.27733,0,0,0-1.27417,1.27441V490.48438a1.278,1.278,0,0,0,1.27466,1.27343H807.818a1.278,1.278,0,0,0,1.27344-1.27441V193.30176a1.27728,1.27728,0,0,0-1.27417-1.27344H393.7943Z" transform="translate(-92.5953 -190.02832)" fill="#3f3d56"/><path d="M784.95776,215.552V426.74653a5.31536,5.31536,0,0,1-5.3136,5.31714H421.12463a4.48228,4.48228,0,0,1-.762-.05927,5.31218,5.31218,0,0,1-4.55511-5.25787V215.552a5.31532,5.31532,0,0,1,5.31354-5.31709H779.64062a5.31535,5.31535,0,0,1,5.31714,5.31358Z" transform="translate(-92.5953 -190.02832)" fill="#f2f2f2"/><circle cx="413.5845" cy="99.13113" r="46.64764" fill="#ff6584"/><path d="M652.4616,432.91035H423.62225a4.66646,4.66646,0,0,1-.85517-.06775L530.99755,245.37185a7.578,7.578,0,0,1,13.19122,0L616.825,371.17927l3.47986,6.01989Z" transform="translate(-92.5953 -190.02832)" fill="#3f3d56"/><polygon points="559.866 242.882 481.735 242.882 520.089 187.171 522.85 183.158 524.23 181.151 527.71 187.171 559.866 242.882" opacity="0.2" style="isolation:isolate"/><path d="M779.87768,432.91035H581.95043l38.35443-55.71122,2.76013-4.01327,49.97925-72.60239c3.27661-4.7583,11.15918-5.05462,15.01154-.89746a9.03328,9.03328,0,0,1,.71973.89746Z" transform="translate(-92.5953 -190.02832)" fill="#3f3d56"/><circle cx="311.242" cy="292.10587" r="6.35007" fill="#6c63ff"/><circle cx="311.242" cy="12.10587" r="6.35007" fill="#6c63ff"/><circle cx="706.242" cy="12.10587" r="6.35007" fill="#6c63ff"/><circle cx="706.242" cy="292.10587" r="6.35007" fill="#6c63ff"/><polygon points="220.779 506.765 233.039 506.765 238.871 459.477 220.777 459.478 220.779 506.765" fill="#a0616a"/><path d="M310.74775,693.29018h38.53073a0,0,0,0,1,0,0V708.177a0,0,0,0,1,0,0H325.6346a14.88686,14.88686,0,0,1-14.88686-14.88686v0A0,0,0,0,1,310.74775,693.29018Z" transform="translate(567.4629 1211.42384) rotate(179.99738)" fill="#2f2e41"/><polygon points="174.779 506.765 187.039 506.765 192.871 459.477 174.777 459.478 174.779 506.765" fill="#a0616a"/><path d="M264.74775,693.29018h38.53073a0,0,0,0,1,0,0V708.177a0,0,0,0,1,0,0H279.6346a14.88686,14.88686,0,0,1-14.88686-14.88686v0A0,0,0,0,1,264.74775,693.29018Z" transform="translate(475.4629 1211.42594) rotate(179.99738)" fill="#2f2e41"/><path d="M268.87207,555.95517a10.74271,10.74271,0,0,0,2.06222-16.343l8.0725-114.55784-23.253,2.25509L255.11511,539.496a10.80091,10.80091,0,0,0,13.757,16.45913Z" transform="translate(-92.5953 -190.02832)" fill="#a0616a"/><path d="M313.74023,672.97677a4.51711,4.51711,0,0,1-4.46875-3.96582l-7.12622-59.60254a3.5,3.5,0,0,0-6.93286-.12793l-8.97705,57.06739a4.47889,4.47889,0,0,1-4.44531,3.80078H267.24a4.50047,4.50047,0,0,1-4.5-4.53418l6.94434-126.53418a4.4738,4.4738,0,0,1,3.85351-4.41992l53.99365-7.8379a4.50113,4.50113,0,0,1,5.14649,4.48536l-.9419,136.55664a4.499,4.499,0,0,1-4.28589,4.46289l-13.49633.64355Q313.84655,672.97678,313.74023,672.97677Z" transform="translate(-92.5953 -190.02832)" fill="#2f2e41"/><path d="M285.74756,543.86056a45.08471,45.08471,0,0,1-15.22583-2.71094,4.46544,4.46544,0,0,1-2.918-4.00488c-.46582-10.33691-3.19092-63.54394-11.12451-95.999a33.17817,33.17817,0,0,1,12.63647-34.57325q.64014-.46,1.30518-.90332a32.30591,32.30591,0,0,1,31.39551-2.46093,33.21915,33.21915,0,0,1,19.36352,25.957l12.9375,96.05078a4.47791,4.47791,0,0,1-.93115,3.40137,4.41813,4.41813,0,0,1-3.05347,1.67285c-4.48291.44726-13.78052,2.18457-25.67993,8.7959A38.12459,38.12459,0,0,1,285.74756,543.86056Z" transform="translate(-92.5953 -190.02832)" fill="#6c63ff"/><path d="M269.93088,464.24191l-21.29064-5.77256a4.50509,4.50509,0,0,1-3.16562-5.52077l7.48456-27.60491a12.3986,12.3986,0,0,1,24.34643,3.92684l-1.70385,30.87615a4.49956,4.49956,0,0,1-5.67088,4.09525Z" transform="translate(-92.5953 -190.02832)" fill="#6c63ff"/><circle cx="201.03592" cy="175.57702" r="24.56103" fill="#a0616a"/><path d="M382.63494,413.86a10.52722,10.52722,0,0,0-.2393,1.64013l-42.95745,24.782-10.44141-6.01093-11.13116,14.57227L340.20276,464.764l49.00791-38.66268A10.4958,10.4958,0,1,0,382.63494,413.86Z" transform="translate(-92.5953 -190.02832)" fill="#a0616a"/><path d="M335.878,441.4779l-18.5043,12.00853a4.50507,4.50507,0,0,1-6.22447-1.3251l-15.57-23.9922a12.3986,12.3986,0,0,1,19.16808-15.51623l21.8634,21.86849a4.49956,4.49956,0,0,1-.73275,6.95651Z" transform="translate(-92.5953 -190.02832)" fill="#6c63ff"/><path d="M276.25062,385.03691c4.582,4.88078,13.09132,2.26066,13.68835-4.40718a8.05467,8.05467,0,0,0-.01014-1.55569c-.30826-2.95357-2.0146-5.63505-1.60587-8.7536a4.59038,4.59038,0,0,1,.84011-2.14891c3.65124-4.88934,12.22227,2.18687,15.6682-2.2393,2.113-2.714-.3708-6.98712,1.25065-10.02051,2.14006-4.00357,8.47881-2.0286,12.45388-4.22115,4.42275-2.43949,4.15822-9.22525,1.24686-13.35269-3.55052-5.0336-9.77572-7.71952-15.92336-8.10661s-12.25291,1.27475-17.99229,3.51145c-6.52109,2.54134-12.98768,6.05351-17.00066,11.78752-4.88022,6.97317-5.34986,16.34794-2.90917,24.50175C267.44187,374.992,272.509,381.05123,276.25062,385.03691Z" transform="translate(-92.5953 -190.02832)" fill="#2f2e41"/><path d="M474.5953,709.97168h-381a1,1,0,1,1,0-2h381a1,1,0,1,1,0,2Z" transform="translate(-92.5953 -190.02832)" fill="#3f3d56"/><path d="M1100.5953,709.97168h-381a1,1,0,0,1,0-2h381a1,1,0,0,1,0,2Z" transform="translate(-92.5953 -190.02832)" fill="#3f3d56"/><path d="M928.02253,521.32191a10.342,10.342,0,0,1-3.69829-15.421l-7.73338-75.61094h16.71263l6.14591,73.83019a10.3981,10.3981,0,0,1-11.42687,17.20178Z" transform="translate(-92.5953 -190.02832)" fill="#ffb8b8"/><circle cx="820.08204" cy="174.88861" r="23.64504" fill="#ffb8b8"/><path d="M907.29681,474.22278l-35.28941-7.70634a4.34283,4.34283,0,0,1-3.40214-4.00971c-.40755-7.87463-.7004-28.24563,5.36539-47.26282A28.63889,28.63889,0,0,1,910.77181,397h0a28.65183,28.65183,0,0,1,16.27057,39.55789c-7.82574,16.06985-12.75444,27.70693-14.64882,34.58971a4.32479,4.32479,0,0,1-5.09675,3.0752Z" transform="translate(-92.5953 -190.02832)" fill="#6c63ff"/><polygon points="781.457 508.826 769.654 508.825 764.04 463.301 781.459 463.301 781.457 508.826" fill="#ffb8b8"/><path d="M761.22383,505.45268H783.9859a0,0,0,0,1,0,0v14.33167a0,0,0,0,1,0,0H746.89216a0,0,0,0,1,0,0v0A14.33167,14.33167,0,0,1,761.22383,505.45268Z" fill="#2f2e41"/><polygon points="899.476 493.529 889.134 499.215 862.279 462.029 877.544 453.637 899.476 493.529" fill="#ffb8b8"/><path d="M975.64766,687.433h22.76208a0,0,0,0,1,0,0v14.33167a0,0,0,0,1,0,0H961.316a0,0,0,0,1,0,0v0A14.33166,14.33166,0,0,1,975.64766,687.433Z" transform="translate(-306.02062 367.96141) rotate(-28.80096)" fill="#2f2e41"/><path d="M874.26727,673.57333l-18.16966-1.39893a4.32027,4.32027,0,0,1-3.97985-3.89877c-2.58939-27.00934-13.9503-163.879,16.77683-206.019l.086-.11752.13726-.05076c.275-.1006,27.67825-9.87244,43.40048,8.03539a4.32994,4.32994,0,0,1,.83367,4.21372l-.59981,1.79943a3.35482,3.35482,0,0,0,.47736,3.05452c4.3632,5.89845,19.04845,28.616,24.82022,73.28878a3.337,3.337,0,0,0,.21764.82921l42.61335,104.682a4.33179,4.33179,0,0,1-2.47022,5.68128L965.002,668.78143a4.3558,4.3558,0,0,1-5.336-1.95832L898.1504,555.216a2.40679,2.40679,0,0,0-4.49434.85271L878.89559,669.81088a4.33167,4.33167,0,0,1-4.292,3.77467C874.4922,673.58555,874.38009,673.58179,874.26727,673.57333Z" transform="translate(-92.5953 -190.02832)" fill="#2f2e41"/><path d="M820.75433,392.38312a10.13427,10.13427,0,0,1,.23037,1.579l41.35538,23.85776,10.052-5.78677,10.716,14.02882-16.79954,11.97369a7.70167,7.70167,0,0,1-9.24024-.22512l-42.6445-33.64254a10.10562,10.10562,0,1,1,6.33049-11.7848Z" transform="translate(-92.5953 -190.02832)" fill="#ffb8b8"/><path d="M862.9083,415.43508a4.32755,4.32755,0,0,1,2.12879-2.91222l18.97778-10.61169a12.03133,12.03133,0,0,1,14.755,19.00779l-15.13116,15.71252a4.33219,4.33219,0,0,1-6.55017-.35878l-13.36595-17.32289A4.32732,4.32732,0,0,1,862.9083,415.43508Z" transform="translate(-92.5953 -190.02832)" fill="#6c63ff"/><path d="M912.03228,448.15054a4.32749,4.32749,0,0,1-1.60485-3.23066l-.681-21.73247a12.03133,12.03133,0,0,1,23.667-4.34515l6.98015,20.66671a4.33221,4.33221,0,0,1-3.33464,5.64922l-21.53172,3.88793A4.32736,4.32736,0,0,1,912.03228,448.15054Z" transform="translate(-92.5953 -190.02832)" fill="#6c63ff"/><path d="M908.9349,359.47828c-6.07728,4.15938-14.05689,8.435-20.2639,4.00558a11.29522,11.29522,0,0,1-3.707-13.02047c2.97212-8.4993,11.13795-12.2411,18.94654-15.10926,10.15117-3.72861,21.20429-6.69488,31.68372-4.02464s19.74086,12.81642,17.84912,23.46395c-1.52129,8.56253-9.59817,15.68722-8.45156,24.30792,1.154,8.676,10.91111,13.24287,19.52511,14.79349s18.25326,2.04884,24.4438,8.23614c7.89717,7.893,5.92511,22.00094-1.5058,30.33441s-18.64456,12.111-29.51059,14.67893c-14.39682,3.40241-29.96811,5.19052-43.64145-.45612s-24.31376-20.84675-20.35281-35.1c1.6731-6.02056,5.61442-11.10875,9.42349-16.06227s7.66612-10.13345,9.1191-16.21089c1.21082-5.06453.31464-10.94469-3.04389-14.74367a4.27156,4.27156,0,0,1-.57223-4.993Z" transform="translate(-92.5953 -190.02832)" fill="#2f2e41"/></svg>